<svg width="23" height="23" viewBox="0 0 23 23" fill="none" xmlns="http://www.w3.org/2000/svg">
<path d="M15.3821 2.01721H7.48938C4.06105 2.01721 2.01724 4.06 2.01724 7.48663V15.366C2.01724 18.802 4.06105 20.8448 7.48938 20.8448H15.3727C18.801 20.8448 20.8448 18.802 20.8448 15.3754V7.48663C20.8542 4.06 18.8104 2.01721 15.3821 2.01721ZM11.4357 15.0836C9.42017 15.0836 7.78136 13.4456 7.78136 11.431C7.78136 9.41645 9.42017 7.77845 11.4357 7.77845C13.4513 7.77845 15.0901 9.41645 15.0901 11.431C15.0901 13.4456 13.4513 15.0836 11.4357 15.0836ZM17.0115 6.61114C16.9644 6.72411 16.8985 6.82766 16.8137 6.9218C16.7195 7.00652 16.6159 7.07242 16.5029 7.11949C16.3899 7.16656 16.2674 7.1948 16.145 7.1948C15.8907 7.1948 15.6552 7.10066 15.4763 6.9218C15.3915 6.82766 15.3256 6.72411 15.2785 6.61114C15.2314 6.49818 15.2031 6.3758 15.2031 6.25342C15.2031 6.13104 15.2314 6.00866 15.2785 5.89569C15.3256 5.77332 15.3915 5.67918 15.4763 5.58504C15.6929 5.36852 16.0225 5.26497 16.3239 5.33087C16.3899 5.34028 16.4464 5.35911 16.5029 5.38735C16.5594 5.40618 16.6159 5.43442 16.6724 5.47207C16.7195 5.50032 16.7666 5.54738 16.8137 5.58504C16.8985 5.67918 16.9644 5.77332 17.0115 5.89569C17.0586 6.00866 17.0868 6.13104 17.0868 6.25342C17.0868 6.3758 17.0586 6.49818 17.0115 6.61114Z" fill="white"/>
</svg>
