<svg width="21" height="15" viewBox="0 0 21 15" fill="none" xmlns="http://www.w3.org/2000/svg">
<path fill-rule="evenodd" clip-rule="evenodd" d="M18.578 0.436121C19.476 0.676503 20.1818 1.3822 20.4221 2.2802C20.8565 3.9062 20.8583 7.30074 20.8583 7.30074C20.8583 7.30074 20.8583 10.6953 20.4221 12.3213C20.1818 13.2193 19.476 13.925 18.578 14.1653C16.9521 14.6015 10.4291 14.6015 10.4291 14.6015C10.4291 14.6015 3.9062 14.6015 2.28019 14.1653C1.3822 13.925 0.676503 13.2193 0.436121 12.3213C0 10.6953 0 7.30074 0 7.30074C0 7.30074 0 3.9062 0.436121 2.2802C0.676503 1.3822 1.3822 0.676503 2.28019 0.436121C3.9062 0 10.4291 0 10.4291 0C10.4291 0 16.9521 0 18.578 0.436121ZM13.7603 7.30101L8.34135 10.4294V4.17259L13.7603 7.30101Z" fill="white"/>
</svg>
